<!DOCTYPE svg PUBLIC "-//W3C//DTD SVG 1.1//EN" "http://www.w3.org/Graphics/SVG/1.1/DTD/svg11.dtd">
<!-- Uploaded to: SVG Repo, www.svgrepo.com, Transformed by: SVG Repo Mixer Tools -->
<svg width="256px" height="256px" viewBox="0 0 64.00 64.00" xmlns="http://www.w3.org/2000/svg" xmlns:xlink="http://www.w3.org/1999/xlink" aria-hidden="true" role="img" class="iconify iconify--emojione-monotone" preserveAspectRatio="xMidYMid meet" fill="#000000" stroke="#000000" stroke-width="0.00064">
<g id="SVGRepo_bgCarrier" stroke-width="0"/>
<g id="SVGRepo_tracerCarrier" stroke-linecap="round" stroke-linejoin="round" stroke="#CCCCCC" stroke-width="3.968"/>
<g id="SVGRepo_iconCarrier">
<path d="M29 50.54h6V62h-6z" fill="#004a7c"/>
<path d="M29 2h6v11.46h-6z" fill="#004a7c"/>
<path d="M50.539 29H62v6H50.539z" fill="#004a7c"/>
<path d="M2 29h11.461v6H2z" fill="#004a7c"/>
<path d="M12.909 55.335l-4.242-4.243l8.104-8.102l4.242 4.243z" fill="#004a7c"/>
<path d="M51.091 8.666l4.242 4.243l-8.104 8.102l-4.242-4.243z" fill="#004a7c"/>
<path d="M51.087 55.335l-8.104-8.104l4.243-4.243l8.104 8.104z" fill="#004a7c"/>
<path d="M16.769 21.013l-8.104-8.104l4.242-4.243l8.104 8.104z" fill="#004a7c"/>
<path d="M32 17c-8.284 0-15 6.716-15 15s6.716 15 15 15s15-6.716 15-15s-6.716-15-15-15m0 25c-5.522 0-10-4.478-10-10s4.478-10 10-10s10 4.478 10 10s-4.478 10-10 10" fill="#004a7c"/>
</g>
</svg>